<?xml version="1.0" encoding="utf-8"?>
<!-- Generator: Adobe Illustrator 14.0.0, SVG Export Plug-In . SVG Version: 6.00 Build 43363)  -->
<!DOCTYPE svg PUBLIC "-//W3C//DTD SVG 1.1//EN" "http://www.w3.org/Graphics/SVG/1.1/DTD/svg11.dtd">
<svg version="1.1" id="Layer_1" xmlns="http://www.w3.org/2000/svg" xmlns:xlink="http://www.w3.org/1999/xlink" x="0px" y="0px"
	 width="80.5px" height="9.75px" viewBox="0 0 80.5 9.75" enable-background="new 0 0 80.5 9.75" xml:space="preserve">
<g>
	<path fill="#231F20" d="M1.057,7.098c0.26-0.535,0.767-1.021,1.521-1.459l1.125-0.65c0.504-0.293,0.857-0.543,1.061-0.75
		c0.32-0.325,0.48-0.697,0.48-1.116c0-0.489-0.146-0.877-0.439-1.165S4.12,1.525,3.632,1.525c-0.723,0-1.223,0.274-1.5,0.823
		C1.983,2.642,1.901,3.049,1.886,3.57H0.813C0.825,2.84,0.96,2.244,1.218,1.783c0.457-0.812,1.264-1.219,2.42-1.219
		c0.961,0,1.663,0.26,2.106,0.779s0.665,1.098,0.665,1.734c0,0.672-0.236,1.246-0.709,1.723C5.427,5.078,4.937,5.414,4.229,5.809
		L3.427,6.254C3.044,6.465,2.743,6.666,2.524,6.857c-0.391,0.34-0.637,0.717-0.738,1.131h4.582v0.996h-5.76
		C0.647,8.262,0.797,7.633,1.057,7.098z"/>
	<path fill="#231F20" d="M12.509,1.936c0.375,0.691,0.562,1.639,0.562,2.842c0,1.141-0.17,2.084-0.51,2.83
		c-0.492,1.07-1.297,1.605-2.414,1.605c-1.008,0-1.758-0.438-2.25-1.312c-0.41-0.73-0.615-1.711-0.615-2.941
		c0-0.953,0.123-1.771,0.369-2.455c0.461-1.273,1.295-1.91,2.502-1.91C11.239,0.594,12.024,1.041,12.509,1.936z M11.447,7.525
		c0.325-0.484,0.487-1.387,0.487-2.707c0-0.953-0.118-1.737-0.352-2.353c-0.235-0.615-0.691-0.923-1.368-0.923
		c-0.622,0-1.077,0.292-1.364,0.876C8.562,3.003,8.419,3.863,8.419,5c0,0.855,0.092,1.543,0.276,2.062
		c0.282,0.793,0.763,1.189,1.444,1.189C10.687,8.252,11.123,8.01,11.447,7.525z"/>
	<path fill="#231F20" d="M17.688,2.709h1.043V3.6c0.25-0.309,0.477-0.533,0.68-0.674c0.348-0.238,0.742-0.357,1.184-0.357
		c0.5,0,0.902,0.123,1.207,0.369c0.172,0.141,0.328,0.348,0.469,0.621c0.234-0.336,0.51-0.585,0.826-0.747s0.672-0.243,1.066-0.243
		c0.844,0,1.418,0.305,1.723,0.914c0.164,0.328,0.246,0.77,0.246,1.324v4.178h-1.096V4.625c0-0.418-0.104-0.705-0.313-0.861
		s-0.464-0.234-0.765-0.234c-0.414,0-0.771,0.139-1.069,0.416s-0.448,0.74-0.448,1.389v3.65h-1.072V4.889
		c0-0.426-0.051-0.736-0.152-0.932c-0.16-0.293-0.459-0.439-0.896-0.439c-0.398,0-0.761,0.154-1.087,0.463s-0.489,0.867-0.489,1.676
		v3.328h-1.055V2.709z"/>
	<path fill="#231F20" d="M27.685,0.377h1.072v1.195h-1.072V0.377z M27.685,2.738h1.072v6.246h-1.072V2.738z"/>
	<path fill="#231F20" d="M30.351,2.709h1.002V3.6c0.297-0.367,0.611-0.631,0.943-0.791s0.701-0.24,1.107-0.24
		c0.891,0,1.492,0.311,1.805,0.932c0.172,0.34,0.258,0.826,0.258,1.459v4.025h-1.072V5.029c0-0.383-0.057-0.691-0.17-0.926
		c-0.188-0.391-0.527-0.586-1.02-0.586c-0.25,0-0.455,0.025-0.615,0.076C32.3,3.68,32.046,3.852,31.827,4.109
		c-0.176,0.207-0.29,0.421-0.343,0.642s-0.079,0.536-0.079,0.946v3.287h-1.055V2.709z"/>
	<path fill="#231F20" d="M38.079,2.709v4.166c0,0.32,0.049,0.582,0.148,0.785c0.183,0.375,0.523,0.562,1.021,0.562
		c0.715,0,1.202-0.328,1.461-0.984c0.141-0.352,0.211-0.834,0.211-1.447V2.709h1.055v6.275h-0.996l0.012-0.926
		c-0.134,0.238-0.301,0.439-0.5,0.604c-0.395,0.328-0.874,0.492-1.437,0.492c-0.878,0-1.476-0.299-1.794-0.896
		c-0.172-0.32-0.259-0.748-0.259-1.283V2.709H38.079z"/>
	<path fill="#231F20" d="M43.909,0.957h1.066v1.752h1.002V3.57h-1.002v4.096c0,0.219,0.074,0.365,0.223,0.439
		c0.082,0.043,0.219,0.064,0.41,0.064c0.051,0,0.105-0.001,0.164-0.004s0.127-0.009,0.205-0.02v0.838
		C45.856,9.02,45.73,9.045,45.6,9.061s-0.272,0.023-0.425,0.023c-0.492,0-0.826-0.126-1.002-0.378s-0.264-0.579-0.264-0.981V3.57
		h-0.85V2.709h0.85V0.957z"/>
	<path fill="#231F20" d="M50.908,2.882c0.416,0.209,0.732,0.479,0.949,0.812c0.21,0.316,0.35,0.686,0.419,1.107
		c0.062,0.289,0.093,0.75,0.093,1.383h-4.564c0.02,0.639,0.168,1.151,0.448,1.537c0.279,0.386,0.711,0.579,1.296,0.579
		c0.546,0,0.982-0.183,1.308-0.547c0.182-0.212,0.311-0.457,0.387-0.736h1.037c-0.027,0.23-0.118,0.487-0.272,0.771
		s-0.327,0.515-0.517,0.694c-0.318,0.312-0.711,0.523-1.18,0.633c-0.252,0.062-0.537,0.094-0.855,0.094
		c-0.776,0-1.434-0.284-1.974-0.853c-0.54-0.568-0.81-1.364-0.81-2.388c0-1.008,0.271-1.826,0.815-2.455
		c0.543-0.629,1.254-0.943,2.131-0.943C50.064,2.568,50.493,2.673,50.908,2.882z M51.286,5.346
		c-0.042-0.457-0.142-0.822-0.296-1.096c-0.287-0.508-0.765-0.762-1.435-0.762c-0.48,0-0.883,0.175-1.208,0.524
		s-0.498,0.794-0.517,1.333H51.286z"/>
	<path fill="#231F20" d="M57.529,2.709l1.207,4.945l1.225-4.945h1.184l1.23,4.916l1.283-4.916h1.055l-1.822,6.275h-1.096
		l-1.277-4.857l-1.236,4.857h-1.096l-1.811-6.275H57.529z"/>
	<path fill="#231F20" d="M69.069,5.187c0.242-0.031,0.404-0.132,0.486-0.304c0.047-0.094,0.07-0.229,0.07-0.406
		c0-0.361-0.128-0.623-0.383-0.785c-0.255-0.163-0.621-0.244-1.097-0.244c-0.55,0-0.939,0.149-1.169,0.447
		c-0.129,0.165-0.212,0.411-0.251,0.736h-0.984c0.02-0.775,0.27-1.315,0.752-1.619c0.482-0.304,1.041-0.456,1.677-0.456
		c0.737,0,1.336,0.141,1.797,0.422c0.457,0.281,0.685,0.719,0.685,1.312v3.616c0,0.109,0.022,0.197,0.067,0.263
		c0.045,0.066,0.14,0.1,0.284,0.1c0.047,0,0.1-0.003,0.158-0.009s0.121-0.015,0.188-0.026v0.779
		c-0.164,0.047-0.289,0.076-0.375,0.088s-0.203,0.018-0.352,0.018c-0.363,0-0.627-0.129-0.791-0.387
		c-0.086-0.137-0.146-0.33-0.182-0.58c-0.215,0.281-0.523,0.525-0.926,0.732s-0.846,0.311-1.33,0.311
		c-0.582,0-1.058-0.177-1.427-0.53s-0.554-0.795-0.554-1.325c0-0.582,0.182-1.032,0.545-1.352s0.84-0.517,1.43-0.591L69.069,5.187z
		 M66.849,8.036c0.223,0.176,0.486,0.263,0.791,0.263c0.371,0,0.73-0.086,1.078-0.257c0.586-0.285,0.879-0.751,0.879-1.398V5.795
		c-0.129,0.083-0.294,0.151-0.497,0.206c-0.203,0.055-0.401,0.094-0.597,0.117L67.866,6.2c-0.382,0.051-0.669,0.13-0.862,0.24
		c-0.326,0.183-0.489,0.476-0.489,0.877C66.515,7.621,66.626,7.86,66.849,8.036z"/>
	<path fill="#231F20" d="M72.409,0.377h1.055v8.607h-1.055V0.377z"/>
	<path fill="#231F20" d="M75.022,0.377h1.014v4.998l2.705-2.666h1.347l-2.412,2.333l2.547,3.942h-1.347l-1.974-3.193l-0.866,0.838
		v2.355h-1.014V0.377z"/>
</g>
</svg>
