<?xml version="1.0" encoding="utf-8"?>
<!-- Generator: Adobe Illustrator 14.0.0, SVG Export Plug-In . SVG Version: 6.00 Build 43363)  -->
<!DOCTYPE svg PUBLIC "-//W3C//DTD SVG 1.1//EN" "http://www.w3.org/Graphics/SVG/1.1/DTD/svg11.dtd">
<svg version="1.1" id="Layer_1" xmlns="http://www.w3.org/2000/svg" xmlns:xlink="http://www.w3.org/1999/xlink" x="0px" y="0px"
	 width="612px" height="792px" viewBox="0 0 612 792" enable-background="new 0 0 612 792" xml:space="preserve">
<rect x="198" y="81" fill="#FDA929" width="207" height="45"/>
<rect x="252" y="99" fill="#FFDAAE" width="9" height="9"/>
<rect x="270" y="99" fill="#FFDAAE" width="9" height="9"/>
<rect x="288" y="99" fill="#FFDAAE" width="9" height="9"/>
<rect x="306" y="99" fill="#FFDAAE" width="9" height="9"/>
<rect x="324" y="99" fill="#FFDAAE" width="9" height="9"/>
<rect x="342" y="99" fill="#FFDAAE" width="9" height="9"/>
<rect x="360" y="99" fill="#FFDAAE" width="9" height="9"/>
<rect x="234" y="99" fill="#FFDAAE" width="9" height="9"/>
<rect x="198" y="135" fill="#FDA929" width="207" height="45"/>
<rect x="252" y="153" fill="#FFDAAE" width="9" height="9"/>
<rect x="270" y="153" fill="#FFDAAE" width="9" height="9"/>
<rect x="288" y="153" fill="#FFDAAE" width="9" height="9"/>
<rect x="306" y="153" fill="#FFDAAE" width="9" height="9"/>
<rect x="324" y="153" fill="#FFDAAE" width="9" height="9"/>
<rect x="342" y="153" fill="#FFDAAE" width="9" height="9"/>
<rect x="360" y="153" fill="#FFDAAE" width="9" height="9"/>
<rect x="234" y="153" fill="#FFDAAE" width="9" height="9"/>
<rect x="198" y="189" fill="#FDA929" width="207" height="45"/>
<rect x="252" y="207" fill="#FFDAAE" width="9" height="9"/>
<rect x="270" y="207" fill="#FFDAAE" width="9" height="9"/>
<rect x="288" y="207" fill="#FFDAAE" width="9" height="9"/>
<rect x="306" y="207" fill="#FFDAAE" width="9" height="9"/>
<rect x="324" y="207" fill="#FFDAAE" width="9" height="9"/>
<rect x="342" y="207" fill="#FFDAAE" width="9" height="9"/>
<rect x="360" y="207" fill="#FFDAAE" width="9" height="9"/>
<rect x="234" y="207" fill="#FFDAAE" width="9" height="9"/>
</svg>
