<?xml version="1.0" encoding="utf-8"?>
<!-- Generator: Adobe Illustrator 14.0.0, SVG Export Plug-In . SVG Version: 6.00 Build 43363)  -->
<!DOCTYPE svg PUBLIC "-//W3C//DTD SVG 1.1//EN" "http://www.w3.org/Graphics/SVG/1.1/DTD/svg11.dtd">
<svg version="1.1" id="Layer_1" xmlns="http://www.w3.org/2000/svg" xmlns:xlink="http://www.w3.org/1999/xlink" x="0px" y="0px"
	 width="537px" height="535px" viewBox="0 0 537 535" enable-background="new 0 0 537 535" xml:space="preserve">
<circle fill="#939598" stroke="#000000" stroke-width="12" cx="268.5" cy="267.5" r="257.5"/>
<g>
	<path fill="#F1F2F2" d="M198.469,112.828c18.436-11.873,41.093-17.812,67.969-17.812c35.311,0,64.647,8.438,88.008,25.312
		c23.357,16.875,35.039,41.876,35.039,75c0,20.313-5.064,37.423-15.194,51.328c-5.921,8.438-17.296,19.219-34.127,32.344
		l-16.593,12.891c-9.042,7.031-15.041,15.234-18,24.609c-1.871,5.939-2.885,15.157-3.039,27.656h-63.516
		c0.934-26.404,3.428-44.648,7.479-54.727c4.05-10.078,14.486-21.68,31.311-34.805l17.062-13.359
		c5.606-4.219,10.126-8.826,13.554-13.828c6.229-8.591,9.346-18.047,9.346-28.359c0-11.873-3.468-22.694-10.404-32.461
		c-6.936-9.763-19.604-14.648-37.994-14.648c-18.084,0-30.908,6.017-38.467,18.047c-7.559,12.034-11.338,24.532-11.338,37.5h-67.734
		C153.703,162.984,169.249,131.424,198.469,112.828z M237.375,376.266h70.078V444h-70.078V376.266z"/>
</g>
</svg>
